G75*
%MOIN*%
%OFA0B0*%
%FSLAX25Y25*%
%IPPOS*%
%LPD*%
%AMOC8*
5,1,8,0,0,1.08239X$1,22.5*
%
%ADD10C,0.05200*%
%ADD11C,0.06000*%
%ADD12C,0.05150*%
%ADD13C,0.05150*%
%ADD14C,0.07050*%
%ADD15C,0.01000*%
%ADD16C,0.01600*%
%ADD17C,0.04000*%
D10*
X0023400Y0016000D02*
X0028600Y0016000D01*
X0028600Y0026000D02*
X0023400Y0026000D01*
X0013600Y0021000D02*
X0008400Y0021000D01*
X0008400Y0031000D02*
X0013600Y0031000D01*
X0023400Y0036000D02*
X0028600Y0036000D01*
X0028600Y0046000D02*
X0023400Y0046000D01*
X0013600Y0041000D02*
X0008400Y0041000D01*
X0008400Y0051000D02*
X0013600Y0051000D01*
X0023400Y0056000D02*
X0028600Y0056000D01*
X0028600Y0066000D02*
X0023400Y0066000D01*
X0013600Y0071000D02*
X0008400Y0071000D01*
X0008400Y0061000D02*
X0013600Y0061000D01*
X0023400Y0076000D02*
X0028600Y0076000D01*
X0043400Y0071000D02*
X0048600Y0071000D01*
X0048600Y0061000D02*
X0043400Y0061000D01*
X0043400Y0051000D02*
X0048600Y0051000D01*
X0048600Y0041000D02*
X0043400Y0041000D01*
X0043400Y0031000D02*
X0048600Y0031000D01*
X0048600Y0021000D02*
X0043400Y0021000D01*
X0113400Y0016000D02*
X0118600Y0016000D01*
X0118600Y0026000D02*
X0113400Y0026000D01*
X0113400Y0036000D02*
X0118600Y0036000D01*
X0118600Y0046000D02*
X0113400Y0046000D01*
X0113400Y0056000D02*
X0118600Y0056000D01*
X0118600Y0066000D02*
X0113400Y0066000D01*
X0113400Y0076000D02*
X0118600Y0076000D01*
X0133400Y0071000D02*
X0138600Y0071000D01*
X0148400Y0066000D02*
X0153600Y0066000D01*
X0153600Y0056000D02*
X0148400Y0056000D01*
X0138600Y0061000D02*
X0133400Y0061000D01*
X0133400Y0051000D02*
X0138600Y0051000D01*
X0148400Y0046000D02*
X0153600Y0046000D01*
X0153600Y0036000D02*
X0148400Y0036000D01*
X0138600Y0031000D02*
X0133400Y0031000D01*
X0133400Y0021000D02*
X0138600Y0021000D01*
X0148400Y0026000D02*
X0153600Y0026000D01*
X0153600Y0016000D02*
X0148400Y0016000D01*
X0138600Y0041000D02*
X0133400Y0041000D01*
X0148400Y0076000D02*
X0153600Y0076000D01*
X0138600Y0081000D02*
X0133400Y0081000D01*
X0133400Y0091000D02*
X0138600Y0091000D01*
X0148400Y0096000D02*
X0153600Y0096000D01*
X0153600Y0086000D02*
X0148400Y0086000D01*
X0138600Y0101000D02*
X0133400Y0101000D01*
X0118600Y0096000D02*
X0113400Y0096000D01*
X0113400Y0086000D02*
X0118600Y0086000D01*
X0118600Y0106000D02*
X0113400Y0106000D01*
X0133400Y0111000D02*
X0138600Y0111000D01*
X0148400Y0106000D02*
X0153600Y0106000D01*
X0163400Y0151000D02*
X0168600Y0151000D01*
X0168600Y0161000D02*
X0163400Y0161000D01*
X0163400Y0171000D02*
X0168600Y0171000D01*
X0168600Y0181000D02*
X0163400Y0181000D01*
X0163400Y0191000D02*
X0168600Y0191000D01*
X0168600Y0201000D02*
X0163400Y0201000D01*
X0163400Y0211000D02*
X0168600Y0211000D01*
X0168600Y0221000D02*
X0163400Y0221000D01*
X0138600Y0221000D02*
X0133400Y0221000D01*
X0133400Y0211000D02*
X0138600Y0211000D01*
X0138600Y0201000D02*
X0133400Y0201000D01*
X0133400Y0191000D02*
X0138600Y0191000D01*
X0138600Y0181000D02*
X0133400Y0181000D01*
X0133400Y0171000D02*
X0138600Y0171000D01*
X0138600Y0161000D02*
X0133400Y0161000D01*
X0133400Y0151000D02*
X0138600Y0151000D01*
X0098600Y0156000D02*
X0093400Y0156000D01*
X0093400Y0166000D02*
X0098600Y0166000D01*
X0098600Y0176000D02*
X0093400Y0176000D01*
X0093400Y0186000D02*
X0098600Y0186000D01*
X0098600Y0196000D02*
X0093400Y0196000D01*
X0093400Y0206000D02*
X0098600Y0206000D01*
X0098600Y0216000D02*
X0093400Y0216000D01*
X0093400Y0226000D02*
X0098600Y0226000D01*
X0068600Y0226000D02*
X0063400Y0226000D01*
X0063400Y0216000D02*
X0068600Y0216000D01*
X0068600Y0206000D02*
X0063400Y0206000D01*
X0063400Y0196000D02*
X0068600Y0196000D01*
X0068600Y0186000D02*
X0063400Y0186000D01*
X0063400Y0176000D02*
X0068600Y0176000D01*
X0068600Y0166000D02*
X0063400Y0166000D01*
X0063400Y0156000D02*
X0068600Y0156000D01*
X0048600Y0111000D02*
X0043400Y0111000D01*
X0028600Y0106000D02*
X0023400Y0106000D01*
X0013600Y0101000D02*
X0008400Y0101000D01*
X0008400Y0091000D02*
X0013600Y0091000D01*
X0023400Y0096000D02*
X0028600Y0096000D01*
X0028600Y0086000D02*
X0023400Y0086000D01*
X0013600Y0081000D02*
X0008400Y0081000D01*
X0043400Y0081000D02*
X0048600Y0081000D01*
X0048600Y0091000D02*
X0043400Y0091000D01*
X0043400Y0101000D02*
X0048600Y0101000D01*
X0013600Y0111000D02*
X0008400Y0111000D01*
D11*
X0018000Y0171000D02*
X0024000Y0171000D01*
X0024000Y0181000D02*
X0018000Y0181000D01*
X0018000Y0191000D02*
X0024000Y0191000D01*
X0024000Y0201000D02*
X0018000Y0201000D01*
X0018000Y0211000D02*
X0024000Y0211000D01*
X0024000Y0221000D02*
X0018000Y0221000D01*
D12*
X0228425Y0221000D02*
X0233575Y0221000D01*
X0233575Y0211000D02*
X0228425Y0211000D01*
X0228425Y0201000D02*
X0233575Y0201000D01*
X0233575Y0191000D02*
X0228425Y0191000D01*
X0228425Y0181000D02*
X0233575Y0181000D01*
X0233575Y0171000D02*
X0228425Y0171000D01*
X0228425Y0161000D02*
X0233575Y0161000D01*
X0233575Y0151000D02*
X0228425Y0151000D01*
X0228425Y0141000D02*
X0233575Y0141000D01*
X0233575Y0131000D02*
X0228425Y0131000D01*
X0228425Y0121000D02*
X0233575Y0121000D01*
X0233575Y0111000D02*
X0228425Y0111000D01*
X0228425Y0101000D02*
X0233575Y0101000D01*
X0288425Y0101000D02*
X0293575Y0101000D01*
X0293575Y0111000D02*
X0288425Y0111000D01*
X0288425Y0121000D02*
X0293575Y0121000D01*
X0293575Y0131000D02*
X0288425Y0131000D01*
X0288425Y0141000D02*
X0293575Y0141000D01*
X0293575Y0151000D02*
X0288425Y0151000D01*
X0288425Y0161000D02*
X0293575Y0161000D01*
X0293575Y0171000D02*
X0288425Y0171000D01*
X0288425Y0181000D02*
X0293575Y0181000D01*
X0293575Y0191000D02*
X0288425Y0191000D01*
X0288425Y0201000D02*
X0293575Y0201000D01*
X0293575Y0211000D02*
X0288425Y0211000D01*
X0288425Y0221000D02*
X0293575Y0221000D01*
X0293575Y0231000D02*
X0288425Y0231000D01*
X0288425Y0241000D02*
X0293575Y0241000D01*
X0233575Y0241000D02*
X0228425Y0241000D01*
X0228425Y0231000D02*
X0233575Y0231000D01*
D13*
X0251000Y0106000D03*
X0251000Y0096000D03*
X0261000Y0096000D03*
X0271000Y0096000D03*
X0271000Y0106000D03*
X0261000Y0106000D03*
D14*
X0362475Y0121472D02*
X0369525Y0121472D01*
X0369525Y0141157D02*
X0362475Y0141157D01*
X0362475Y0160843D02*
X0369525Y0160843D01*
X0369525Y0180528D02*
X0362475Y0180528D01*
X0362475Y0201472D02*
X0369525Y0201472D01*
X0369525Y0221157D02*
X0362475Y0221157D01*
X0362475Y0240843D02*
X0369525Y0240843D01*
X0369525Y0260528D02*
X0362475Y0260528D01*
X0360843Y0287475D02*
X0360843Y0294525D01*
X0380528Y0294525D02*
X0380528Y0287475D01*
X0341157Y0287475D02*
X0341157Y0294525D01*
X0321472Y0294525D02*
X0321472Y0287475D01*
X0300528Y0287475D02*
X0300528Y0294525D01*
X0280843Y0294525D02*
X0280843Y0287475D01*
X0261157Y0287475D02*
X0261157Y0294525D01*
X0241472Y0294525D02*
X0241472Y0287475D01*
X0160528Y0289525D02*
X0160528Y0282475D01*
X0140843Y0282475D02*
X0140843Y0289525D01*
X0121157Y0289525D02*
X0121157Y0282475D01*
X0101472Y0282475D02*
X0101472Y0289525D01*
X0080528Y0289525D02*
X0080528Y0282475D01*
X0060843Y0282475D02*
X0060843Y0289525D01*
X0041157Y0289525D02*
X0041157Y0282475D01*
X0021472Y0282475D02*
X0021472Y0289525D01*
D15*
X0020800Y0230500D02*
X0091000Y0230500D01*
X0095500Y0226000D01*
X0096000Y0226000D01*
X0100000Y0200800D02*
X0021700Y0200800D01*
X0021000Y0201000D01*
X0013600Y0213400D02*
X0013600Y0169300D01*
X0046000Y0136900D01*
X0046000Y0111000D01*
X0042400Y0106300D02*
X0098200Y0106300D01*
X0102700Y0110800D01*
X0102700Y0159400D01*
X0096400Y0165700D01*
X0096000Y0166000D01*
X0096000Y0176000D02*
X0095500Y0176500D01*
X0073900Y0176500D01*
X0069400Y0181000D01*
X0021000Y0181000D01*
X0011800Y0168400D02*
X0011800Y0221500D01*
X0020800Y0230500D01*
X0021000Y0221000D02*
X0020800Y0220600D01*
X0013600Y0213400D01*
X0011800Y0168400D02*
X0025300Y0154900D01*
X0025300Y0106300D01*
X0026000Y0106000D01*
X0037900Y0101800D02*
X0042400Y0106300D01*
X0037900Y0101800D02*
X0011800Y0101800D01*
X0011000Y0101000D01*
X0011000Y0091000D02*
X0037000Y0091000D01*
X0041500Y0086500D01*
X0115300Y0086500D01*
X0116000Y0086000D01*
X0116200Y0086500D01*
X0122500Y0092800D01*
X0122500Y0156700D01*
X0136000Y0170200D01*
X0136000Y0171000D01*
X0136000Y0161000D02*
X0136000Y0160300D01*
X0147700Y0160300D01*
X0171100Y0136900D01*
X0295300Y0136900D01*
X0357400Y0199000D01*
X0357400Y0212500D01*
X0365500Y0220600D01*
X0366000Y0221157D01*
X0366000Y0160843D02*
X0365500Y0160300D01*
X0266500Y0061300D01*
X0147700Y0061300D01*
X0143200Y0056800D01*
X0133300Y0056800D01*
X0127900Y0051400D01*
X0112600Y0051400D01*
X0108100Y0046900D01*
X0043300Y0046900D01*
X0037900Y0041500D01*
X0011800Y0041500D01*
X0011000Y0041000D01*
X0011800Y0031600D02*
X0011000Y0031000D01*
X0011800Y0031600D02*
X0037900Y0031600D01*
X0043300Y0037000D01*
X0108100Y0037000D01*
X0112600Y0041500D01*
X0127900Y0041500D01*
X0133300Y0046900D01*
X0143200Y0046900D01*
X0147700Y0051400D01*
X0276400Y0051400D01*
X0365500Y0140500D01*
X0366000Y0141157D01*
X0366000Y0121472D02*
X0365500Y0120700D01*
X0286300Y0041500D01*
X0147700Y0041500D01*
X0143200Y0037000D01*
X0133300Y0037000D01*
X0127900Y0031600D01*
X0112600Y0031600D01*
X0108100Y0027100D01*
X0043300Y0027100D01*
X0037900Y0021700D01*
X0011800Y0021700D01*
X0011000Y0021000D01*
X0046000Y0021000D02*
X0046000Y0021700D01*
X0127900Y0021700D01*
X0131500Y0025300D01*
X0150400Y0025300D01*
X0151000Y0026000D01*
X0118900Y0060400D02*
X0056800Y0060400D01*
X0051400Y0055000D01*
X0033400Y0055000D01*
X0029800Y0051400D01*
X0011800Y0051400D01*
X0011000Y0051000D01*
X0020800Y0061300D02*
X0011800Y0070300D01*
X0011000Y0071000D01*
X0020800Y0061300D02*
X0028900Y0061300D01*
X0033400Y0056800D01*
X0050500Y0056800D01*
X0059500Y0065800D01*
X0115300Y0065800D01*
X0116000Y0066000D01*
X0118900Y0060400D02*
X0126100Y0067600D01*
X0126100Y0119800D01*
X0136000Y0101800D02*
X0136000Y0101000D01*
X0136000Y0101800D02*
X0230500Y0101800D01*
X0231000Y0101000D01*
X0289000Y0141400D02*
X0234100Y0196300D01*
X0171100Y0196300D01*
X0166600Y0200800D01*
X0166000Y0201000D01*
X0140500Y0196300D02*
X0104500Y0196300D01*
X0100000Y0200800D01*
X0136000Y0210700D02*
X0136000Y0211000D01*
X0136000Y0210700D02*
X0139600Y0207100D01*
X0233200Y0207100D01*
X0289000Y0151300D01*
X0290800Y0151300D01*
X0291000Y0151000D01*
X0290800Y0141400D02*
X0289000Y0141400D01*
X0290800Y0141400D02*
X0291000Y0141000D01*
X0166000Y0171000D02*
X0165700Y0171100D01*
X0140500Y0196300D01*
X0102700Y0110800D02*
X0115300Y0098200D01*
X0115300Y0096400D01*
X0116000Y0096000D01*
X0046000Y0081000D02*
X0046000Y0071000D01*
X0046000Y0061000D01*
X0026200Y0066700D02*
X0026000Y0066000D01*
X0026200Y0066700D02*
X0026200Y0075700D01*
X0026000Y0076000D01*
X0026200Y0076600D01*
X0026200Y0085600D01*
X0026000Y0086000D01*
D16*
X0046000Y0136900D02*
X0046000Y0156000D01*
X0066000Y0156000D01*
D17*
X0126100Y0119800D03*
M02*
