G75*
%MOIN*%
%OFA0B0*%
%FSLAX25Y25*%
%IPPOS*%
%LPD*%
%AMOC8*
5,1,8,0,0,1.08239X$1,22.5*
%
%ADD10C,0.01600*%
%ADD11C,0.05200*%
%ADD12C,0.06000*%
%ADD13C,0.05150*%
%ADD14C,0.05150*%
%ADD15C,0.07050*%
%ADD16C,0.01000*%
%ADD17C,0.04000*%
D10*
X0271800Y0014869D02*
X0274869Y0011800D01*
X0281008Y0011800D01*
X0284077Y0014869D01*
X0284077Y0017939D01*
X0281008Y0021008D01*
X0274869Y0021008D01*
X0271800Y0024077D01*
X0271800Y0027146D01*
X0274869Y0030216D01*
X0281008Y0030216D01*
X0284077Y0027146D01*
X0290216Y0030216D02*
X0299424Y0030216D01*
X0302493Y0027146D01*
X0302493Y0021008D01*
X0299424Y0017939D01*
X0290216Y0017939D01*
X0296354Y0017939D02*
X0302493Y0011800D01*
X0308631Y0011800D02*
X0308631Y0030216D01*
X0314770Y0024077D01*
X0320909Y0030216D01*
X0320909Y0011800D01*
X0345463Y0014869D02*
X0345463Y0030216D01*
X0357740Y0030216D02*
X0357740Y0014869D01*
X0354671Y0011800D01*
X0348532Y0011800D01*
X0345463Y0014869D01*
X0363879Y0011800D02*
X0363879Y0024077D01*
X0370017Y0030216D01*
X0376156Y0024077D01*
X0376156Y0011800D01*
X0382294Y0017939D02*
X0388433Y0011800D01*
X0394572Y0017939D01*
X0394572Y0030216D01*
X0382294Y0030216D02*
X0382294Y0017939D01*
X0376156Y0021008D02*
X0363879Y0021008D01*
X0366354Y0041800D02*
X0366354Y0060216D01*
X0360216Y0060216D02*
X0372493Y0060216D01*
X0378631Y0057146D02*
X0378631Y0054077D01*
X0381701Y0051008D01*
X0387839Y0051008D01*
X0390909Y0047939D01*
X0390909Y0044869D01*
X0387839Y0041800D01*
X0381701Y0041800D01*
X0378631Y0044869D01*
X0378631Y0057146D02*
X0381701Y0060216D01*
X0387839Y0060216D01*
X0390909Y0057146D01*
X0354077Y0060216D02*
X0341800Y0060216D01*
X0341800Y0041800D01*
X0341800Y0051008D02*
X0347939Y0051008D01*
X0290216Y0030216D02*
X0290216Y0011800D01*
D11*
X0028600Y0016000D02*
X0023400Y0016000D01*
X0013600Y0021000D02*
X0008400Y0021000D01*
X0008400Y0031000D02*
X0013600Y0031000D01*
X0023400Y0036000D02*
X0028600Y0036000D01*
X0028600Y0026000D02*
X0023400Y0026000D01*
X0013600Y0041000D02*
X0008400Y0041000D01*
X0023400Y0046000D02*
X0028600Y0046000D01*
X0028600Y0056000D02*
X0023400Y0056000D01*
X0013600Y0061000D02*
X0008400Y0061000D01*
X0008400Y0051000D02*
X0013600Y0051000D01*
X0023400Y0066000D02*
X0028600Y0066000D01*
X0028600Y0076000D02*
X0023400Y0076000D01*
X0013600Y0081000D02*
X0008400Y0081000D01*
X0008400Y0071000D02*
X0013600Y0071000D01*
X0023400Y0086000D02*
X0028600Y0086000D01*
X0028600Y0096000D02*
X0023400Y0096000D01*
X0013600Y0091000D02*
X0008400Y0091000D01*
X0008400Y0101000D02*
X0013600Y0101000D01*
X0023400Y0106000D02*
X0028600Y0106000D01*
X0043400Y0101000D02*
X0048600Y0101000D01*
X0048600Y0091000D02*
X0043400Y0091000D01*
X0043400Y0081000D02*
X0048600Y0081000D01*
X0048600Y0071000D02*
X0043400Y0071000D01*
X0043400Y0061000D02*
X0048600Y0061000D01*
X0048600Y0051000D02*
X0043400Y0051000D01*
X0043400Y0041000D02*
X0048600Y0041000D01*
X0048600Y0031000D02*
X0043400Y0031000D01*
X0043400Y0021000D02*
X0048600Y0021000D01*
X0113400Y0016000D02*
X0118600Y0016000D01*
X0118600Y0026000D02*
X0113400Y0026000D01*
X0113400Y0036000D02*
X0118600Y0036000D01*
X0118600Y0046000D02*
X0113400Y0046000D01*
X0113400Y0056000D02*
X0118600Y0056000D01*
X0118600Y0066000D02*
X0113400Y0066000D01*
X0113400Y0076000D02*
X0118600Y0076000D01*
X0133400Y0071000D02*
X0138600Y0071000D01*
X0148400Y0066000D02*
X0153600Y0066000D01*
X0153600Y0056000D02*
X0148400Y0056000D01*
X0138600Y0061000D02*
X0133400Y0061000D01*
X0133400Y0051000D02*
X0138600Y0051000D01*
X0148400Y0046000D02*
X0153600Y0046000D01*
X0153600Y0036000D02*
X0148400Y0036000D01*
X0138600Y0031000D02*
X0133400Y0031000D01*
X0133400Y0021000D02*
X0138600Y0021000D01*
X0148400Y0026000D02*
X0153600Y0026000D01*
X0153600Y0016000D02*
X0148400Y0016000D01*
X0138600Y0041000D02*
X0133400Y0041000D01*
X0148400Y0076000D02*
X0153600Y0076000D01*
X0138600Y0081000D02*
X0133400Y0081000D01*
X0133400Y0091000D02*
X0138600Y0091000D01*
X0148400Y0096000D02*
X0153600Y0096000D01*
X0153600Y0086000D02*
X0148400Y0086000D01*
X0138600Y0101000D02*
X0133400Y0101000D01*
X0118600Y0096000D02*
X0113400Y0096000D01*
X0113400Y0086000D02*
X0118600Y0086000D01*
X0118600Y0106000D02*
X0113400Y0106000D01*
X0133400Y0111000D02*
X0138600Y0111000D01*
X0148400Y0106000D02*
X0153600Y0106000D01*
X0163400Y0151000D02*
X0168600Y0151000D01*
X0168600Y0161000D02*
X0163400Y0161000D01*
X0163400Y0171000D02*
X0168600Y0171000D01*
X0168600Y0181000D02*
X0163400Y0181000D01*
X0163400Y0191000D02*
X0168600Y0191000D01*
X0168600Y0201000D02*
X0163400Y0201000D01*
X0163400Y0211000D02*
X0168600Y0211000D01*
X0168600Y0221000D02*
X0163400Y0221000D01*
X0138600Y0221000D02*
X0133400Y0221000D01*
X0133400Y0211000D02*
X0138600Y0211000D01*
X0138600Y0201000D02*
X0133400Y0201000D01*
X0133400Y0191000D02*
X0138600Y0191000D01*
X0138600Y0181000D02*
X0133400Y0181000D01*
X0133400Y0171000D02*
X0138600Y0171000D01*
X0138600Y0161000D02*
X0133400Y0161000D01*
X0133400Y0151000D02*
X0138600Y0151000D01*
X0098600Y0156000D02*
X0093400Y0156000D01*
X0093400Y0166000D02*
X0098600Y0166000D01*
X0098600Y0176000D02*
X0093400Y0176000D01*
X0093400Y0186000D02*
X0098600Y0186000D01*
X0098600Y0196000D02*
X0093400Y0196000D01*
X0093400Y0206000D02*
X0098600Y0206000D01*
X0098600Y0216000D02*
X0093400Y0216000D01*
X0093400Y0226000D02*
X0098600Y0226000D01*
X0068600Y0226000D02*
X0063400Y0226000D01*
X0063400Y0216000D02*
X0068600Y0216000D01*
X0068600Y0206000D02*
X0063400Y0206000D01*
X0063400Y0196000D02*
X0068600Y0196000D01*
X0068600Y0186000D02*
X0063400Y0186000D01*
X0063400Y0176000D02*
X0068600Y0176000D01*
X0068600Y0166000D02*
X0063400Y0166000D01*
X0063400Y0156000D02*
X0068600Y0156000D01*
X0048600Y0111000D02*
X0043400Y0111000D01*
X0013600Y0111000D02*
X0008400Y0111000D01*
D12*
X0018000Y0171000D02*
X0024000Y0171000D01*
X0024000Y0181000D02*
X0018000Y0181000D01*
X0018000Y0191000D02*
X0024000Y0191000D01*
X0024000Y0201000D02*
X0018000Y0201000D01*
X0018000Y0211000D02*
X0024000Y0211000D01*
X0024000Y0221000D02*
X0018000Y0221000D01*
D13*
X0228425Y0221000D02*
X0233575Y0221000D01*
X0233575Y0211000D02*
X0228425Y0211000D01*
X0228425Y0201000D02*
X0233575Y0201000D01*
X0233575Y0191000D02*
X0228425Y0191000D01*
X0228425Y0181000D02*
X0233575Y0181000D01*
X0233575Y0171000D02*
X0228425Y0171000D01*
X0228425Y0161000D02*
X0233575Y0161000D01*
X0233575Y0151000D02*
X0228425Y0151000D01*
X0228425Y0141000D02*
X0233575Y0141000D01*
X0233575Y0131000D02*
X0228425Y0131000D01*
X0228425Y0121000D02*
X0233575Y0121000D01*
X0233575Y0111000D02*
X0228425Y0111000D01*
X0228425Y0101000D02*
X0233575Y0101000D01*
X0288425Y0101000D02*
X0293575Y0101000D01*
X0293575Y0111000D02*
X0288425Y0111000D01*
X0288425Y0121000D02*
X0293575Y0121000D01*
X0293575Y0131000D02*
X0288425Y0131000D01*
X0288425Y0141000D02*
X0293575Y0141000D01*
X0293575Y0151000D02*
X0288425Y0151000D01*
X0288425Y0161000D02*
X0293575Y0161000D01*
X0293575Y0171000D02*
X0288425Y0171000D01*
X0288425Y0181000D02*
X0293575Y0181000D01*
X0293575Y0191000D02*
X0288425Y0191000D01*
X0288425Y0201000D02*
X0293575Y0201000D01*
X0293575Y0211000D02*
X0288425Y0211000D01*
X0288425Y0221000D02*
X0293575Y0221000D01*
X0293575Y0231000D02*
X0288425Y0231000D01*
X0288425Y0241000D02*
X0293575Y0241000D01*
X0233575Y0241000D02*
X0228425Y0241000D01*
X0228425Y0231000D02*
X0233575Y0231000D01*
D14*
X0251000Y0106000D03*
X0251000Y0096000D03*
X0261000Y0096000D03*
X0271000Y0096000D03*
X0271000Y0106000D03*
X0261000Y0106000D03*
D15*
X0362475Y0121472D02*
X0369525Y0121472D01*
X0369525Y0141157D02*
X0362475Y0141157D01*
X0362475Y0160843D02*
X0369525Y0160843D01*
X0369525Y0180528D02*
X0362475Y0180528D01*
X0362475Y0201472D02*
X0369525Y0201472D01*
X0369525Y0221157D02*
X0362475Y0221157D01*
X0362475Y0240843D02*
X0369525Y0240843D01*
X0369525Y0260528D02*
X0362475Y0260528D01*
X0360843Y0287475D02*
X0360843Y0294525D01*
X0380528Y0294525D02*
X0380528Y0287475D01*
X0341157Y0287475D02*
X0341157Y0294525D01*
X0321472Y0294525D02*
X0321472Y0287475D01*
X0300528Y0287475D02*
X0300528Y0294525D01*
X0280843Y0294525D02*
X0280843Y0287475D01*
X0261157Y0287475D02*
X0261157Y0294525D01*
X0241472Y0294525D02*
X0241472Y0287475D01*
X0160528Y0289525D02*
X0160528Y0282475D01*
X0140843Y0282475D02*
X0140843Y0289525D01*
X0121157Y0289525D02*
X0121157Y0282475D01*
X0101472Y0282475D02*
X0101472Y0289525D01*
X0080528Y0289525D02*
X0080528Y0282475D01*
X0060843Y0282475D02*
X0060843Y0289525D01*
X0041157Y0289525D02*
X0041157Y0282475D01*
X0021472Y0282475D02*
X0021472Y0289525D01*
D16*
X0021700Y0286300D02*
X0021472Y0286000D01*
X0021700Y0286300D02*
X0040600Y0286300D01*
X0041157Y0286000D01*
X0041500Y0286300D01*
X0060400Y0286300D01*
X0060843Y0286000D01*
X0061300Y0286300D01*
X0080200Y0286300D01*
X0080528Y0286000D01*
X0081100Y0285400D01*
X0081100Y0226000D01*
X0066000Y0226000D01*
X0065800Y0226000D01*
X0061300Y0221500D01*
X0021700Y0221500D01*
X0021000Y0221000D01*
X0021000Y0191000D02*
X0021700Y0190900D01*
X0069400Y0190900D01*
X0079300Y0181000D01*
X0136000Y0181000D01*
X0133300Y0176500D02*
X0143200Y0176500D01*
X0163000Y0196300D01*
X0237700Y0196300D01*
X0301600Y0260200D01*
X0365500Y0260200D01*
X0366000Y0260528D01*
X0366000Y0240843D02*
X0365500Y0240400D01*
X0342100Y0217000D01*
X0288100Y0217000D01*
X0237700Y0166600D01*
X0163000Y0166600D01*
X0143200Y0146800D01*
X0117100Y0146800D01*
X0108100Y0155800D01*
X0096400Y0155800D01*
X0096000Y0156000D01*
X0106300Y0160300D02*
X0070300Y0160300D01*
X0066000Y0156000D01*
X0059500Y0154000D02*
X0017200Y0111700D01*
X0011800Y0111700D01*
X0011000Y0111000D01*
X0026000Y0106000D02*
X0026200Y0105400D01*
X0026200Y0096400D01*
X0026000Y0096000D01*
X0026200Y0095500D01*
X0026200Y0086500D01*
X0026000Y0086000D01*
X0030700Y0080200D02*
X0011800Y0080200D01*
X0011000Y0081000D01*
X0020800Y0070300D02*
X0011800Y0061300D01*
X0011000Y0061000D01*
X0020800Y0070300D02*
X0030700Y0070300D01*
X0034300Y0066700D01*
X0050500Y0066700D01*
X0054100Y0070300D01*
X0118900Y0070300D01*
X0124300Y0075700D01*
X0124300Y0108100D01*
X0131500Y0115300D01*
X0234100Y0115300D01*
X0289000Y0170200D01*
X0290800Y0170200D01*
X0291000Y0171000D01*
X0288100Y0176500D02*
X0361900Y0176500D01*
X0365500Y0180100D01*
X0366000Y0180528D01*
X0366400Y0181000D01*
X0366400Y0200800D01*
X0366000Y0201472D01*
X0291000Y0181000D02*
X0259300Y0181000D01*
X0235000Y0156700D01*
X0163000Y0156700D01*
X0126100Y0119800D01*
X0122500Y0121600D02*
X0122500Y0082900D01*
X0116200Y0076600D01*
X0116000Y0076000D01*
X0115300Y0076600D01*
X0034300Y0076600D01*
X0030700Y0080200D01*
X0046000Y0081000D02*
X0046000Y0091000D01*
X0046000Y0101000D01*
X0046000Y0111000D01*
X0059500Y0154000D02*
X0059500Y0169300D01*
X0065800Y0175600D01*
X0066000Y0176000D01*
X0066700Y0166600D02*
X0066000Y0166000D01*
X0066700Y0166600D02*
X0088300Y0166600D01*
X0093700Y0172000D01*
X0128800Y0172000D01*
X0133300Y0176500D01*
X0136000Y0171100D02*
X0136000Y0171000D01*
X0136000Y0171100D02*
X0140500Y0171100D01*
X0154900Y0185500D01*
X0234100Y0185500D01*
X0289000Y0240400D01*
X0290800Y0240400D01*
X0291000Y0241000D01*
X0300528Y0291000D02*
X0300700Y0291700D01*
X0321400Y0291700D01*
X0321472Y0291000D01*
X0322300Y0291700D01*
X0340300Y0291700D01*
X0341157Y0291000D01*
X0341200Y0291700D01*
X0360100Y0291700D01*
X0360843Y0291000D01*
X0361000Y0291700D01*
X0379900Y0291700D01*
X0380528Y0291000D01*
X0300528Y0291000D02*
X0299800Y0291700D01*
X0280900Y0291700D01*
X0280843Y0291000D01*
X0280000Y0291700D01*
X0262000Y0291700D01*
X0261157Y0291000D01*
X0261100Y0291700D01*
X0242200Y0291700D01*
X0241472Y0291000D01*
X0241300Y0290800D01*
X0172000Y0221500D01*
X0166600Y0221500D01*
X0166000Y0221000D01*
X0165700Y0221500D01*
X0144100Y0221500D01*
X0139600Y0226000D01*
X0096000Y0226000D01*
X0100900Y0220600D02*
X0096400Y0216100D01*
X0096000Y0216000D01*
X0095500Y0216100D01*
X0085600Y0226000D01*
X0081100Y0226000D01*
X0066700Y0215200D02*
X0066000Y0216000D01*
X0066700Y0215200D02*
X0088300Y0215200D01*
X0091900Y0211600D01*
X0136000Y0211600D01*
X0136000Y0211000D01*
X0145000Y0211600D02*
X0136000Y0220600D01*
X0136000Y0221000D01*
X0136000Y0220600D02*
X0100900Y0220600D01*
X0096000Y0206000D02*
X0096400Y0205300D01*
X0162100Y0205300D01*
X0165700Y0201700D01*
X0166000Y0201000D01*
X0166000Y0211000D02*
X0165700Y0211600D01*
X0145000Y0211600D01*
X0161200Y0160300D02*
X0122500Y0121600D01*
X0136000Y0111000D02*
X0136000Y0101000D01*
X0136000Y0091000D01*
X0136000Y0081000D01*
X0136000Y0071000D01*
X0136000Y0061300D01*
X0136000Y0061000D01*
X0136000Y0051000D01*
X0136000Y0041000D01*
X0136000Y0031000D01*
X0136000Y0021000D01*
X0151000Y0016000D02*
X0151300Y0016300D01*
X0151300Y0025300D01*
X0151000Y0026000D01*
X0151300Y0026200D01*
X0151300Y0035200D01*
X0151000Y0036000D01*
X0151300Y0036100D01*
X0151300Y0046000D01*
X0151000Y0046000D01*
X0151300Y0046000D02*
X0151300Y0055900D01*
X0151000Y0056000D01*
X0151300Y0056800D01*
X0151300Y0065800D01*
X0151000Y0066000D01*
X0151300Y0066700D01*
X0151300Y0075700D01*
X0151000Y0076000D01*
X0151300Y0076600D01*
X0151300Y0085600D01*
X0151000Y0086000D01*
X0151300Y0086500D01*
X0151300Y0095500D01*
X0151000Y0096000D01*
X0151300Y0096400D01*
X0151300Y0105400D01*
X0151000Y0106000D01*
X0155800Y0110800D01*
X0230500Y0110800D01*
X0231000Y0111000D01*
X0231400Y0111700D01*
X0271900Y0111700D01*
X0290800Y0130600D01*
X0291000Y0131000D01*
X0266500Y0154900D02*
X0288100Y0176500D01*
X0266500Y0154900D02*
X0226000Y0154900D01*
X0222400Y0151300D01*
X0166600Y0151300D01*
X0166000Y0151000D01*
X0165700Y0160300D02*
X0161200Y0160300D01*
X0165700Y0160300D02*
X0166000Y0161000D01*
X0136000Y0151300D02*
X0136000Y0151000D01*
X0136000Y0151300D02*
X0115300Y0151300D01*
X0106300Y0160300D01*
X0065800Y0185500D02*
X0066000Y0186000D01*
X0065800Y0185500D02*
X0036100Y0185500D01*
X0021700Y0171100D01*
X0021000Y0171000D01*
X0059500Y0154000D02*
X0107200Y0106300D01*
X0115300Y0106300D01*
X0116000Y0106000D01*
X0108100Y0064900D02*
X0111700Y0061300D01*
X0136000Y0061300D01*
X0108100Y0064900D02*
X0026200Y0064900D01*
X0026000Y0066000D01*
X0026200Y0065800D01*
X0026200Y0064900D01*
X0026200Y0056800D01*
X0026000Y0056000D01*
X0026200Y0055900D01*
X0026200Y0046000D01*
X0026000Y0046000D01*
X0026200Y0046000D02*
X0026200Y0036100D01*
X0026000Y0036000D01*
X0026200Y0035200D01*
X0026200Y0026200D01*
X0026000Y0026000D01*
X0026200Y0025300D01*
X0026200Y0016300D01*
X0026000Y0016000D01*
X0046000Y0021000D02*
X0046000Y0031000D01*
X0046000Y0041000D01*
X0046000Y0051000D01*
X0046000Y0061000D01*
X0080528Y0286000D02*
X0081100Y0286300D01*
X0100900Y0286300D01*
X0101472Y0286000D01*
X0101800Y0286300D01*
X0120700Y0286300D01*
X0121157Y0286000D01*
X0121600Y0286300D01*
X0140500Y0286300D01*
X0140843Y0286000D01*
X0141400Y0286300D01*
X0160300Y0286300D01*
X0160528Y0286000D01*
D17*
X0126100Y0119800D03*
M02*
